{"title":"Kamli - DHOOM 3 Full HD Video UPSCALED 1080p {DAKU RG} {GreatPal","uid":9473598,"size":120681194,"categoryP":"video","categoryS":"music_videos","magnet":"?xt=urn:btih:3b517c8f80d90b9d4998bbd0abd44ebaf8efe8b3&amp;dn=Kamli+-+DHOOM+3+Full+HD+Video+UPSCALED+1080p+%7BDAKU+RG%7D+%7BGreatPal&amp;tr=udp%3A%2F%2Ftracker.openbittorrent.com%3A80&amp;tr=udp%3A%2F%2Fopen.demonii.com%3A1337&amp;tr=udp%3A%2F%2Ftracker.coppersurfer.tk%3A6969&amp;tr=udp%3A%2F%2Fexodus.desync.com%3A6969","seeders":1,"leechers":0,"uploader":"Palash995","files":1,"time":1389641177,"description":"\n\n\nWithout Any reason..Don't Dislike the torrent.....please check and give your feedback[/color][/size]\n\n[img]http://i843.photobucket.com/albums/zz358/0Krish0/qiWyCf1pvj_zps682a8ccb.png[/img]\n\n[size=100][color=red]Kamli - DHOOM 3 Full HD Video UPSCALED 1080p[/color][/size]\n\n\n\n\nDHOOM:3. Starring Aamir Khan, Abhishek Bachchan, Katrina Kaif &amp; Uday Chopra. \n\nSong: Kamli\nSinger: Sunidhi Chauhan\nMusic: Pritam\nLyrics:Amitabh Bhattacharya\n\nProduced by Aditya Chopra, DHOOM:3 is written and directed by Vijay Krishna Acharya, who had also written DHOOM &amp; DHOOM:2. Apart from Aamir Khan, who plays the anti-hero in the film, and Katrina Kaif, both Abhishek Bachchan and Uday Chopra will continue in their now iconic roles of Jai Dixit and Ali.\n\nScreenshots:-\n\n\n\n\n\n\n\n\n\n\n\n\nMedia Info:-\n\nGeneral\nComplete name : Kamli - DHOOM 3 Full HD Video UPSCALED 1080p {DAKU RG} {GreatPalash}.mp4\nFormat : MPEG-4\nFormat profile : Base Media\nCodec ID : isom\nFile size : 115 MiB\nDuration : 3mn 56s\nOverall bit rate mode : Variable\nOverall bit rate : 4 085 Kbps\nWriting application : Lavf53.31.100\n\nVideo\nID : 1\nFormat : AVC\nFormat/Info : Advanced Video Codec\nFormat profile : &lt;a class=&quot;__cf_email__&quot; href=&quot;/cdn-cgi/l/email-protection&quot; data-cfemail=&quot;97dffef0ffd7dba3b9a6&quot;&gt;[email&amp;#160;protected]&lt;/a&gt;&lt;script cf-hash='f9e31' type=&quot;text/javascript&quot;&gt;\n/* &lt;![CDATA[ */!function(){try{var t=&quot;currentScript&quot;in document?document.currentScript:function(){for(var t=document.getElementsByTagName(&quot;script&quot;),e=t.length;e--;)if(t[e].getAttribute(&quot;cf-hash&quot;))return t[e]}();if(t&amp;&amp;t.previousSibling){var e,r,n,i,c=t.previousSibling,a=c.getAttribute(&quot;data-cfemail&quot;);if(a){for(e=&quot;&quot;,r=parseInt(a.substr(0,2),16),n=2;a.length-n;n+=2)i=parseInt(a.substr(n,2),16)^r,e+=String.fromCharCode(i);e=document.createTextNode(e),c.parentNode.replaceChild(e,c)}}}catch(u){}}();/* ]]&gt; */&lt;/script&gt;\nFormat settings, CABAC : Yes\nFormat settings, ReFrames : 3 frames\nCodec ID : avc1\nCodec ID/Info : Advanced Video Coding\nDuration : 3mn 56s\nBit rate mode : Variable\nBit rate : 3 954 Kbps\nMaximum bit rate : 19.2 Mbps\nWidth : 1 920 pixels\nHeight : 1 080 pixels\nDisplay aspect ratio : 16:9\nFrame rate mode : Constant\nFrame rate : 24.000 fps\nStandard : NTSC\nColor space : YUV\nChroma subsampling : 4:2:0\nBit depth : 8 bits\nScan type : Progressive\nBits/(Pixel*Frame) : 0.079\nStream size : 111 MiB (97%)\nColor primaries : BT.709\nTransfer characteristics : BT.709\nMatrix coefficients : BT.709\n\nAudio\nID : 2\nFormat : AAC\nFormat/Info : Advanced Audio Codec\nFormat profile : LC\nCodec ID : 40\nDuration : 3mn 56s\nBit rate mode : Constant\nBit rate : 126 Kbps\nChannel(s) : 2 channels\nChannel positions : Front: L R\nSampling rate : 44.1 KHz\nCompression mode : Lossy\nStream size : 3.54 MiB (3%)\n\n[IMG]http://imageshack.us/a/img89/4822/zka.gif[/IMG]\n\n[IMG]http://imageshack.us/a/img200/185/tj8.gif[/IMG]\n\n[IMG]http://imageshack.us/a/img593/9603/ua8.gif[/IMG]\n\n[IMG]http://imageshack.us/a/img707/5608/ysmp.png[/IMG][/b][/center]","torrent":{"xt":"urn:btih:3b517c8f80d90b9d4998bbd0abd44ebaf8efe8b3","amp;dn":"Kamli+-+DHOOM+3+Full+HD+Video+UPSCALED+1080p+%7BDAKU+RG%7D+%7BGreatPal","amp;tr":["udp%3A%2F%2Ftracker.openbittorrent.com%3A80","udp%3A%2F%2Fopen.demonii.com%3A1337","udp%3A%2F%2Ftracker.coppersurfer.tk%3A6969","udp%3A%2F%2Fexodus.desync.com%3A6969"],"infoHash":"3b517c8f80d90b9d4998bbd0abd44ebaf8efe8b3","infoHashBuffer":{"type":"Buffer","data":[59,81,124,143,128,217,11,157,73,152,187,208,171,212,78,186,248,239,232,179]},"announce":[],"urlList":[]}}